<svg width="32" height="33" viewBox="0 0 32 33" fill="none" xmlns="http://www.w3.org/2000/svg">
<g clip-path="url(#clip0_23_236)">
<path d="M13.3214 19.4303C13.3214 20.8089 12.3214 21.2446 11.0929 21.2446H7.87143V17.466H11.1571C12.4857 17.4732 13.3214 18.0232 13.3214 19.4303V19.4303ZM12.7714 13.5518C12.7714 12.2875 11.7929 11.9875 10.7071 11.9875H7.87857V15.1875H10.9286C12.0071 15.1875 12.7714 14.716 12.7714 13.5518V13.5518ZM22.2214 15.2089C20.9143 15.2089 20.0429 16.0232 19.9571 17.3303H24.4C24.2786 16.0089 23.5929 15.2089 22.2214 15.2089ZM32 4.21605V29.3589C32 31.2518 30.4643 32.7875 28.5714 32.7875H3.42857C1.53571 32.7875 0 31.2518 0 29.3589V4.21605C0 2.32319 1.53571 0.787476 3.42857 0.787476H28.5714C30.4643 0.787476 32 2.32319 32 4.21605ZM19.4071 11.716H24.9643V10.366H19.4071V11.716ZM16.3357 19.5946C16.3357 17.8732 15.5214 16.3875 13.8357 15.9089C15.0643 15.3232 15.7071 14.6446 15.7071 13.266C15.7071 10.5375 13.6714 9.87319 11.3214 9.87319H4.85714V23.5875H11.5071C14 23.5732 16.3357 22.3803 16.3357 19.5946V19.5946ZM27.1429 18.5375C27.1429 15.6018 25.4214 13.1518 22.3143 13.1518C19.2857 13.1518 17.2357 15.4232 17.2357 18.4089C17.2357 21.5018 19.1857 23.6232 22.3143 23.6232C24.6857 23.6232 26.2214 22.5589 26.9643 20.2803H24.5571C24.2929 21.1303 23.2286 21.5732 22.4 21.5732C20.8 21.5732 19.9643 20.6375 19.9643 19.0518H27.1214C27.1286 18.8875 27.1429 18.7089 27.1429 18.5375Z" fill="white" fill-opacity="0.5"/>
</g>
<defs>
<clipPath id="clip0_23_236">
<rect width="32" height="32" fill="white" transform="translate(0 0.787476)"/>
</clipPath>
</defs>
</svg>
