<svg width="327" height="129" viewBox="0 0 327 129" fill="none" xmlns="http://www.w3.org/2000/svg">
<path d="M163.5 8.78748C148.648 8.78748 134.404 14.6875 123.902 25.1895C113.4 35.6915 107.5 49.9354 107.5 64.7875C107.5 79.6396 113.4 93.8834 123.902 104.385C134.404 114.887 148.648 120.787 163.5 120.787C178.352 120.787 192.596 114.887 203.098 104.385C213.6 93.8834 219.5 79.6396 219.5 64.7875C219.5 49.9354 213.6 35.6915 203.098 25.1895C192.596 14.6875 178.352 8.78748 163.5 8.78748ZM163.5 0.787476C180.474 0.787476 196.753 7.53031 208.755 19.5326C220.757 31.535 227.5 47.8136 227.5 64.7875C227.5 81.7613 220.757 98.04 208.755 110.042C196.753 122.045 180.474 128.787 163.5 128.787C146.526 128.787 130.247 122.045 118.245 110.042C106.243 98.04 99.5 81.7613 99.5 64.7875C99.5 47.8136 106.243 31.535 118.245 19.5326C130.247 7.53031 146.526 0.787476 163.5 0.787476V0.787476Z" fill="white" fill-opacity="0.75"/>
<path d="M133.78 52.2515C134.699 52.7819 135.79 52.9256 136.815 52.6511C137.84 52.3765 138.713 51.7062 139.244 50.7875C141.701 46.5288 145.236 42.9925 149.495 40.5348C153.753 38.0771 158.583 36.7846 163.5 36.7875C173.86 36.7875 182.908 42.4115 187.756 50.7875C188.29 51.6987 189.163 52.3616 190.184 52.6316C191.205 52.9016 192.292 52.7567 193.207 52.2286C194.121 51.7004 194.79 50.8319 195.067 49.8125C195.344 48.7932 195.206 47.7057 194.684 46.7875C191.525 41.3127 186.979 36.7665 181.505 33.6066C176.031 30.4468 169.821 28.7846 163.5 28.7875C157.179 28.7862 150.97 30.4491 145.496 33.6088C140.022 36.7685 135.476 41.3137 132.316 46.7875C131.786 47.7062 131.642 48.798 131.916 49.8227C132.191 50.8474 132.861 51.721 133.78 52.2515ZM155.5 76.7875C155.5 70.1635 151.916 64.7875 147.5 64.7875C143.084 64.7875 139.5 70.1635 139.5 76.7875C139.5 83.4115 143.084 88.7875 147.5 88.7875C151.916 88.7875 155.5 83.4115 155.5 76.7875ZM187.5 76.7875C187.5 70.1635 183.916 64.7875 179.5 64.7875C175.084 64.7875 171.5 70.1635 171.5 76.7875C171.5 83.4115 175.084 88.7875 179.5 88.7875C183.916 88.7875 187.5 83.4115 187.5 76.7875Z" fill="white" fill-opacity="0.75"/>
</svg>
