<svg width="32" height="33" viewBox="0 0 32 33" fill="none" xmlns="http://www.w3.org/2000/svg">
<path d="M16 0.787476C13.8989 0.787476 11.8183 1.2116 9.87706 2.03564C7.93586 2.85968 6.17203 4.06749 4.68629 5.59011C1.68571 8.66519 0 12.8359 0 17.1847C0 24.4323 4.592 30.5812 10.944 32.7621C11.744 32.8933 12 32.3849 12 31.9422V29.1711C7.568 30.1549 6.624 26.9739 6.624 26.9739C5.888 25.0718 4.848 24.5635 4.848 24.5635C3.392 23.5468 4.96 23.5796 4.96 23.5796C6.56 23.6944 7.408 25.2685 7.408 25.2685C8.8 27.7609 11.152 27.023 12.064 26.6295C12.208 25.5637 12.624 24.8422 13.072 24.4323C9.52 24.0224 5.792 22.6122 5.792 16.3648C5.792 14.5448 6.4 13.0854 7.44 11.9212C7.28 11.5113 6.72 9.80595 7.6 7.59233C7.6 7.59233 8.944 7.1496 12 9.26484C13.264 8.90411 14.64 8.72374 16 8.72374C17.36 8.72374 18.736 8.90411 20 9.26484C23.056 7.1496 24.4 7.59233 24.4 7.59233C25.28 9.80595 24.72 11.5113 24.56 11.9212C25.6 13.0854 26.208 14.5448 26.208 16.3648C26.208 22.6286 22.464 24.006 18.896 24.4159C19.472 24.9242 20 25.9244 20 27.4494V31.9422C20 32.3849 20.256 32.9097 21.072 32.7621C27.424 30.5648 32 24.4323 32 17.1847C32 15.0314 31.5861 12.8992 30.7821 10.9098C29.978 8.92035 28.7994 7.11274 27.3137 5.59011C25.828 4.06749 24.0641 2.85968 22.1229 2.03564C20.1817 1.2116 18.1012 0.787476 16 0.787476V0.787476Z" fill="white" fill-opacity="0.5"/>
</svg>
