<svg width="32" height="33" viewBox="0 0 32 33" fill="none" xmlns="http://www.w3.org/2000/svg">
<g clip-path="url(#clip0_23_234)">
<path d="M28.4444 0.787476C29.3874 0.787476 30.2918 1.16208 30.9586 1.82887C31.6254 2.49567 32 3.40004 32 4.34303V29.2319C32 30.1749 31.6254 31.0793 30.9586 31.7461C30.2918 32.4129 29.3874 32.7875 28.4444 32.7875H3.55556C2.61256 32.7875 1.70819 32.4129 1.0414 31.7461C0.374602 31.0793 0 30.1749 0 29.2319V4.34303C0 3.40004 0.374602 2.49567 1.0414 1.82887C1.70819 1.16208 2.61256 0.787476 3.55556 0.787476H28.4444ZM27.5556 28.343V18.9208C27.5556 17.3837 26.945 15.9096 25.8581 14.8227C24.7712 13.7359 23.2971 13.1253 21.76 13.1253C20.2489 13.1253 18.4889 14.0497 17.6356 15.4364V13.463H12.6756V28.343H17.6356V19.5786C17.6356 18.2097 18.7378 17.0897 20.1067 17.0897C20.7668 17.0897 21.3998 17.3519 21.8666 17.8187C22.3333 18.2854 22.5956 18.9185 22.5956 19.5786V28.343H27.5556ZM6.89778 10.6719C7.68989 10.6719 8.44956 10.3573 9.00967 9.79715C9.56978 9.23704 9.88445 8.47737 9.88445 7.68525C9.88445 6.03192 8.55111 4.68081 6.89778 4.68081C6.10095 4.68081 5.33676 4.99735 4.77331 5.56079C4.20987 6.12423 3.89333 6.88843 3.89333 7.68525C3.89333 9.33859 5.24444 10.6719 6.89778 10.6719V10.6719ZM9.36889 28.343V13.463H4.44444V28.343H9.36889V28.343Z" fill="white" fill-opacity="0.5"/>
</g>
<defs>
<clipPath id="clip0_23_234">
<rect width="32" height="32" fill="white" transform="translate(0 0.787476)"/>
</clipPath>
</defs>
</svg>
